<svg width="320" height="512" viewBox="0 0 320 512" fill="none" xmlns="http://www.w3.org/2000/svg">
<path d="M96 96C78.3 96 64 110.3 64 128C64 145.7 49.7 160 32 160C14.3 160 0 145.7 0 128C0 75 43 32 96 32H193C263.1 32 320 88.9 320 159C320 211.4 287.8 258.4 239 277.4L176 301.9V320C176 337.7 161.7 352 144 352C126.3 352 112 337.7 112 320V301.9C112 275.5 128.2 251.8 152.8 242.3L215.8 217.8C240 208.3 256 185 256 159C256 124.2 227.8 96 193 96H96ZM144 480C121.9 480 104 462.1 104 440C104 417.9 121.9 400 144 400C166.1 400 184 417.9 184 440C184 462.1 166.1 480 144 480Z" fill="white"/>
</svg>
