<svg width="15" height="17" viewBox="0 0 15 17" fill="none" xmlns="http://www.w3.org/2000/svg">
<path d="M8.5476 0.652161C4.18483 0.652161 0.652222 4.19537 0.652222 8.5652C0.652222 12.935 4.18483 16.4782 8.5476 16.4782C10.6884 16.4782 12.6278 15.6234 14.0514 14.2386C14.228 14.0655 14.274 13.797 14.1609 13.578C14.0479 13.359 13.8041 13.2353 13.5604 13.2777C13.2142 13.3378 12.8609 13.3696 12.4971 13.3696C9.07396 13.3696 6.29733 10.5859 6.29733 7.15216C6.29733 4.8277 7.56907 2.80352 9.45195 1.73667C9.66744 1.61303 9.77695 1.36575 9.72396 1.12553C9.67097 0.885313 9.46608 0.70515 9.2188 0.683954C8.99625 0.666291 8.77369 0.655693 8.5476 0.655693V0.652161Z" fill="white"/>
</svg>
