<svg width="18" height="18" viewBox="0 0 18 18" fill="none" xmlns="http://www.w3.org/2000/svg">
<path d="M12.7089 0.0421769C12.8847 0.116005 13.0113 0.274208 13.0464 0.460536L13.7461 4.2539L17.5394 4.94999C17.7257 4.98515 17.8839 5.11171 17.9578 5.28749C18.0316 5.46327 18.0105 5.66366 17.9015 5.82186L15.7113 8.99999L17.9015 12.1746C18.0105 12.3328 18.0316 12.5332 17.9578 12.709C17.8839 12.8848 17.7257 13.0113 17.5394 13.0465L13.7461 13.7461L13.0464 17.5394C13.0113 17.7258 12.8847 17.884 12.7089 17.9578C12.5332 18.0316 12.3328 18.0105 12.1746 17.9016L8.99996 15.7113L5.82535 17.9016C5.66715 18.0105 5.46676 18.0316 5.29097 17.9578C5.11519 17.884 4.98863 17.7258 4.95347 17.5394L4.25387 13.7461L0.460506 13.0465C0.274178 13.0113 0.115974 12.8848 0.0421464 12.709C-0.0316818 12.5332 -0.010588 12.3328 0.0983964 12.1746L2.28863 8.99999L0.0983964 5.82538C-0.010588 5.66718 -0.0316818 5.46679 0.0421464 5.291C0.115974 5.11522 0.274178 4.98866 0.460506 4.9535L4.25387 4.2539L4.95347 0.460536C4.98863 0.274208 5.11519 0.116005 5.29097 0.0421769C5.46676 -0.0316512 5.66715 -0.0105575 5.82535 0.0984269L8.99996 2.28866L12.1746 0.0984269C12.3328 -0.0105575 12.5332 -0.0316512 12.7089 0.0421769ZM12.375 8.99999C12.375 10.8633 10.8632 12.375 8.99996 12.375C7.13668 12.375 5.62496 10.8633 5.62496 8.99999C5.62496 7.13671 7.13668 5.62499 8.99996 5.62499C10.8632 5.62499 12.375 7.13671 12.375 8.99999ZM13.5 8.99999C13.5 6.51444 11.4855 4.49999 8.99996 4.49999C6.51441 4.49999 4.49996 6.51444 4.49996 8.99999C4.49996 11.4855 6.51441 13.5 8.99996 13.5C11.4855 13.5 13.5 11.4855 13.5 8.99999Z" fill="white"/>
</svg>
